<svg id="Layer_1" enable-background="new 0 0 24 24" height="512" viewBox="0 0 24 24" width="512" xmlns="http://www.w3.org/2000/svg"><g><g><g><circle cx="20.5" cy="6.5" r="1.5"/></g><g><path d="m16.5 8h-13c-.8281 0-1.5-.6719-1.5-1.5s.6719-1.5 1.5-1.5h13c.8281 0 1.5.6719 1.5 1.5s-.6719 1.5-1.5 1.5z"/></g></g><g><path d="m16.5 14h-13c-.8281 0-1.5-.6719-1.5-1.5s.6719-1.5 1.5-1.5h13c.8281 0 1.5.6719 1.5 1.5s-.6719 1.5-1.5 1.5z"/></g><g><path d="m10.5 20h-7c-.8281 0-1.5-.6719-1.5-1.5s.6719-1.5 1.5-1.5h7c.8281 0 1.5.6719 1.5 1.5s-.6719 1.5-1.5 1.5z"/></g></g></svg>